<svg width="512" height="512" viewBox="0 0 512 512" style="color:#3A76F5" xmlns="http://www.w3.org/2000/svg" class="h-full w-full"><rect width="512" height="512" x="0" y="0" rx="30" fill="transparent" stroke="transparent" stroke-width="0" stroke-opacity="100%" paint-order="stroke"></rect><svg width="512px" height="512px" viewBox="0 0 24 24" fill="#3A76F5" x="0" y="0" role="img" style="display:inline-block;vertical-align:middle" xmlns="http://www.w3.org/2000/svg"><g fill="#3A76F5"><g fill="none" stroke="currentColor" stroke-linecap="round" stroke-linejoin="round" stroke-width="2"><path d="M2 6a4 4 0 0 1 4-4h12a4 4 0 0 1 4 4v12a4 4 0 0 1-4 4H6a4 4 0 0 1-4-4V6Z"/><circle cx="8.5" cy="8.5" r="2.5"/><path d="M14.526 12.621L6 22h12.133A3.867 3.867 0 0 0 22 18.133V18c0-.466-.175-.645-.49-.99l-4.03-4.395a2 2 0 0 0-2.954.006Z"/></g></g></svg></svg>